<svg width="1920" height="342" viewBox="0 0 1920 342" fill="none" xmlns="http://www.w3.org/2000/svg">
<path d="M1995.2 235.473C1995.2 235.473 1703.51 253.684 1519.99 235.473C1333.05 216.923 1268.36 140.669 1057.69 140.669C847.014 140.669 749.241 341 603.504 341C457.766 341 410.22 251.448 266.647 235.473C179.123 225.735 39.3709 235.473 39.3709 235.473" stroke="#A6BFCC" stroke-opacity="0.5"/>
<path d="M2000 21.2507C2000 21.2507 1814.87 280.089 1582.71 314.435C1373.15 345.439 1269.84 263.743 1059.16 203.303C862.72 146.945 680.246 216.22 567.715 263.743C466.358 306.548 338.06 344.692 217.945 340.269C116.552 336.535 27.9332 147.493 0.999462 116.054" stroke="#A6BFCC" stroke-opacity="0.5"/>
<path d="M1995.35 223.476C1995.35 223.476 1706.89 248.979 1521.89 232.36C1334.26 215.311 1268.41 138.893 1057.73 137.062C847.49 135.354 747.151 331.713 602.419 333.153C458.027 334.45 408.034 248.768 265.172 233.143C177.227 223.586 39.0245 227.301 38.2083 226.349" stroke="#A6BFCC" stroke-opacity="0.5"/>
<path d="M1995.49 211.502C1995.49 211.502 1710.26 244.296 1523.79 229.27C1335.48 213.723 1268.45 137.14 1057.78 133.477C847.966 130.061 745.06 322.449 601.335 325.33C458.287 327.924 405.847 246.111 263.696 230.836C175.331 221.462 38.6777 219.153 37.0453 217.247" stroke="#A6BFCC" stroke-opacity="0.5"/>
<path d="M1995.64 199.551C1995.64 199.551 1713.64 239.637 1525.69 226.204C1336.69 212.158 1268.5 135.41 1057.82 129.916C848.442 124.792 742.969 313.209 600.25 317.529C458.548 321.42 403.66 243.477 262.22 228.552C173.435 219.36 38.3313 211.027 35.8828 208.169" stroke="#A6BFCC" stroke-opacity="0.5"/>
<path d="M1995.78 187.625C1995.78 187.625 1717.01 235.003 1527.59 223.162C1337.91 210.619 1268.54 133.706 1057.87 126.379C848.918 119.548 740.878 303.993 599.166 309.754C458.808 314.942 401.473 240.868 260.744 226.294C171.539 217.283 37.9846 202.927 34.7199 199.116" stroke="#A6BFCC" stroke-opacity="0.5"/>
<path d="M1995.93 175.725C1995.93 175.725 1720.38 230.395 1529.49 220.147C1339.12 209.105 1268.59 132.027 1057.91 122.87C849.394 114.33 738.787 294.804 598.081 302.005C459.068 308.49 399.287 238.286 259.268 224.061C169.643 215.233 37.6379 194.853 33.5571 190.09" stroke="#A6BFCC" stroke-opacity="0.5"/>
<path d="M1996.08 163.852C1996.08 163.852 1723.76 225.814 1531.39 217.159C1340.34 207.618 1268.63 130.375 1057.96 119.386C849.87 109.139 736.696 285.642 596.997 294.282C459.328 302.065 397.1 235.73 257.792 221.856C167.747 213.209 37.2911 186.806 32.394 181.089" stroke="#A6BFCC" stroke-opacity="0.5"/>
<path d="M1996.22 152.008C1996.22 152.008 1727.13 221.261 1533.29 214.199C1341.55 206.16 1268.67 128.752 1058 115.932C850.346 103.977 734.606 276.508 595.912 286.588C459.589 295.668 394.913 233.203 256.317 219.679C165.851 211.214 36.9447 178.787 31.2315 172.118" stroke="#A6BFCC" stroke-opacity="0.5"/>
<path d="M1996.37 140.194C1996.37 140.194 1730.51 216.739 1535.19 211.269C1342.77 204.731 1268.72 127.159 1058.05 112.507C850.822 98.844 732.515 267.404 594.828 278.924C459.849 289.301 392.727 230.706 254.841 217.531C163.955 209.249 36.5981 170.798 30.0687 163.176" stroke="#A6BFCC" stroke-opacity="0.5"/>
<path d="M1996.51 128.41C1996.51 128.41 1733.88 212.247 1537.1 208.37C1343.98 203.334 1268.76 125.596 1058.09 109.113C851.297 93.7423 730.424 258.33 593.743 271.291C460.109 282.965 390.54 228.239 253.365 215.415C162.058 207.314 36.2513 162.84 28.9058 154.266" stroke="#A6BFCC" stroke-opacity="0.5"/>
<path d="M1996.66 116.66C1996.66 116.66 1737.26 207.788 1539 205.504C1345.2 201.97 1268.81 124.067 1058.14 105.752C851.774 88.6736 728.334 249.29 592.659 263.691C460.37 276.663 388.354 225.806 251.889 213.332C160.163 205.413 35.9051 154.915 27.7433 145.388" stroke="#A6BFCC" stroke-opacity="0.5"/>
<path d="M1996.8 104.943C1996.8 104.943 1740.63 203.363 1540.9 202.671C1346.41 200.639 1268.85 122.571 1058.18 102.424C852.249 83.6382 726.243 240.284 591.574 256.125C460.63 270.393 386.167 223.406 250.413 211.282C158.266 203.545 35.5583 147.023 26.5804 136.544" stroke="#A6BFCC" stroke-opacity="0.5"/>
<path d="M1996.95 97.2446C1996.95 97.2446 1744.01 202.956 1542.8 203.857C1347.63 203.327 1268.9 125.094 1058.22 103.116C852.726 82.622 724.152 235.296 590.49 252.577C460.891 268.143 383.981 225.025 248.938 213.251C156.371 205.696 35.212 143.151 25.4179 131.719" stroke="#A6BFCC" stroke-opacity="0.5"/>
<path d="M1997.09 93.6257C1997.09 93.6257 1747.38 206.629 1544.7 209.123C1348.84 210.094 1268.94 131.696 1058.27 107.887C853.201 85.6849 722.061 234.387 589.405 253.109C461.151 269.971 381.794 230.724 247.462 219.3C154.474 211.926 34.8651 143.358 24.2548 130.973" stroke="#A6BFCC" stroke-opacity="0.5"/>
<path d="M1997.24 90.0068C1997.24 90.0068 1750.76 210.302 1546.6 214.388C1350.06 216.861 1268.99 138.299 1058.31 112.657C853.677 88.7477 719.971 233.479 588.321 253.64C461.411 271.8 379.607 236.422 245.986 225.348C152.578 218.157 34.5185 143.564 23.0921 130.227" stroke="#A6BFCC" stroke-opacity="0.5"/>
<path d="M1997.38 86.3882C1997.38 86.3882 1754.13 213.975 1548.5 219.654C1351.27 223.628 1269.03 144.901 1058.36 117.428C854.153 91.8109 717.88 232.571 587.236 254.172C461.672 273.629 377.42 242.121 244.51 231.396C150.682 224.387 34.172 143.771 21.9294 129.481" stroke="#A6BFCC" stroke-opacity="0.5"/>
<path d="M1997.53 82.7695C1997.53 82.7695 1757.5 217.648 1550.4 224.92C1352.49 230.396 1269.08 151.504 1058.4 122.199C854.629 94.874 715.789 231.662 586.152 254.704C461.932 275.458 375.233 247.819 243.034 237.445C148.786 230.618 33.8253 143.978 20.7665 128.735" stroke="#A6BFCC" stroke-opacity="0.5"/>
<path d="M1997.67 79.1506C1997.67 79.1506 1760.88 221.321 1552.3 230.185C1353.7 237.163 1269.12 158.106 1058.45 126.97C855.105 97.9368 713.698 230.754 585.067 255.236C462.192 277.287 373.047 253.517 241.559 243.493C146.89 236.848 33.4787 144.185 19.6038 127.989" stroke="#A6BFCC" stroke-opacity="0.5"/>
<path d="M1997.82 75.5317C1997.82 75.5317 1764.25 224.994 1554.2 235.451C1354.92 243.93 1269.17 164.708 1058.49 131.74C855.581 101 711.608 229.845 583.983 255.767C462.453 279.115 370.86 259.216 240.083 249.542C144.994 243.078 33.1322 144.391 18.4411 127.243" stroke="#A6BFCC" stroke-opacity="0.5"/>
<path d="M1997.97 71.9131C1997.97 71.9131 1767.63 228.667 1556.1 240.716C1356.13 250.697 1269.21 171.31 1058.54 136.511C856.057 104.063 709.517 228.937 582.898 256.299C462.713 280.944 368.674 264.914 238.607 255.59C143.097 249.309 32.7854 144.598 17.2781 126.497" stroke="#A6BFCC" stroke-opacity="0.5"/>
<path d="M1998.11 68.2944C1998.11 68.2944 1771 232.34 1558 245.982C1357.35 257.465 1269.26 177.913 1058.58 141.282C856.533 107.126 707.426 228.029 581.814 256.831C462.974 282.773 366.487 270.613 237.131 261.639C141.201 255.539 32.439 144.805 16.1155 125.751" stroke="#A6BFCC" stroke-opacity="0.5"/>
<path d="M1998.26 64.6755C1998.26 64.6755 1774.38 236.013 1559.9 251.248C1358.57 264.232 1269.3 184.515 1058.63 146.053C857.009 110.189 705.335 227.12 580.729 257.363C463.234 284.602 364.3 276.311 235.655 267.687C139.305 261.77 32.0922 145.012 14.9526 125.005" stroke="#A6BFCC" stroke-opacity="0.5"/>
<path d="M1998.4 61.0571C1998.4 61.0571 1777.75 239.686 1561.8 256.514C1359.78 270.999 1269.35 191.118 1058.67 150.824C857.485 113.252 703.245 226.212 579.645 257.895C463.494 286.431 362.114 282.01 234.179 273.736C137.409 268 31.7458 145.219 13.79 124.26" stroke="#A6BFCC" stroke-opacity="0.5"/>
<path d="M1998.55 57.438C1998.55 57.438 1781.13 243.359 1563.7 261.779C1361 277.766 1269.39 197.72 1058.72 155.595C857.96 116.315 701.154 225.303 578.56 258.426C463.754 288.259 359.927 287.708 232.703 279.784C135.513 274.23 31.3991 145.425 12.6271 123.513" stroke="#A6BFCC" stroke-opacity="0.5"/>
<path d="M1998.69 53.8193C1998.69 53.8193 1784.5 247.032 1565.61 267.045C1362.21 284.534 1269.43 204.322 1058.76 160.365C858.436 119.378 699.063 224.395 577.476 258.958C464.015 290.088 357.74 293.406 231.228 285.832C133.617 280.461 31.0526 145.632 11.4644 122.767" stroke="#A6BFCC" stroke-opacity="0.5"/>
<path d="M1998.84 50.2007C1998.84 50.2007 1787.87 250.705 1567.51 272.31C1363.43 291.301 1269.48 210.925 1058.81 165.136C858.912 122.441 696.972 223.487 576.391 259.49C464.275 291.917 355.554 299.105 229.752 291.881C131.721 286.691 30.7061 145.839 10.3017 122.022" stroke="#A6BFCC" stroke-opacity="0.5"/>
<path d="M1998.98 46.582C1998.98 46.582 1791.25 254.378 1569.41 277.576C1364.64 298.068 1269.52 217.527 1058.85 169.907C859.388 125.504 694.881 222.579 575.306 260.021C464.535 293.746 353.367 304.803 228.276 297.93C129.825 292.922 30.3592 146.046 9.13871 121.276" stroke="#A6BFCC" stroke-opacity="0.5"/>
<path d="M1999.13 42.9631C1999.13 42.9631 1794.62 258.051 1571.31 282.842C1365.86 304.836 1269.57 224.129 1058.9 174.678C859.864 128.567 692.791 221.67 574.222 260.553C464.796 295.575 351.181 310.502 226.801 303.978C127.929 299.152 30.0131 146.252 7.97644 120.53" stroke="#A6BFCC" stroke-opacity="0.5"/>
<path d="M1999.27 39.3445C1999.27 39.3445 1798 261.724 1573.21 288.107C1367.07 311.603 1269.61 230.732 1058.94 179.449C860.34 131.63 690.7 220.762 573.138 261.085C465.056 297.404 348.994 316.2 225.324 310.026C126.033 305.383 29.6661 146.459 6.81327 119.784" stroke="#A6BFCC" stroke-opacity="0.5"/>
<path d="M1999.42 35.7258C1999.42 35.7258 1801.37 265.397 1575.11 293.373C1368.29 318.37 1269.66 237.334 1058.98 184.22C860.816 134.693 688.609 219.853 572.053 261.617C465.317 299.233 346.807 321.899 223.848 316.075C124.137 311.613 29.3195 146.666 5.65043 119.038" stroke="#A6BFCC" stroke-opacity="0.5"/>
<path d="M1999.56 32.1072C1999.56 32.1072 1804.75 269.07 1577.01 298.639C1369.5 325.138 1269.7 243.937 1059.03 188.991C861.292 137.756 686.518 218.945 570.968 262.149C465.577 301.062 344.62 327.597 222.372 322.124C122.24 317.844 28.9727 146.873 4.48748 118.292" stroke="#A6BFCC" stroke-opacity="0.5"/>
<path d="M1999.71 28.488C1999.71 28.488 1808.12 272.742 1578.91 303.904C1370.72 331.905 1269.75 250.539 1059.07 193.761C861.768 140.819 684.428 218.036 569.884 262.68C465.837 302.89 342.434 333.295 220.897 328.172C120.344 324.074 28.6262 147.079 3.32477 117.546" stroke="#A6BFCC" stroke-opacity="0.5"/>
<path d="M1999.85 24.8696C1999.85 24.8696 1811.5 276.416 1580.81 309.17C1371.93 338.672 1269.79 257.141 1059.12 198.532C862.244 143.882 682.337 217.128 568.799 263.212C466.098 304.719 340.247 338.994 219.421 334.221C118.448 330.305 28.2796 147.287 2.16205 116.8" stroke="#A6BFCC" stroke-opacity="0.5"/>
<path d="M5.05054 83.9725C119.127 240.928 291.558 308.744 474.413 280.85C634.965 256.358 702.861 79.0816 863.304 53.7676C1055.97 23.3703 1265.05 216.098 1459.27 230.994C1685.69 248.36 1999 1 1999 1" stroke="#A5BFCC" stroke-opacity="0.7"/>
<path d="M0 175.68C167.494 264.139 256.348 297.785 442.763 299.41C744.501 302.04 976.649 76.8041 1278.12 62.8657C1581.71 48.8292 1670.61 64.5097 1922.57 248.098" stroke="#A5BFCC" stroke-opacity="0.7"/>
<path d="M4.75342 78.6075C117.046 228.932 283.104 294.555 459.112 269.459C614.128 247.564 682.079 81.2347 838.567 57.4576C1037.64 29.0031 1248.09 197.145 1448.61 210.344C1679.57 225.863 1979.68 -6.02365 1994.5 4.77568" stroke="#A5BFCC" stroke-opacity="0.7"/>
<path d="M4.45636 74.0272C114.964 217.721 274.65 281.15 443.81 258.852C593.292 239.556 661.296 84.1726 813.829 61.9323C1019.32 35.4206 1231.12 178.976 1437.96 190.48C1673.46 204.151 1960.37 -12.2626 1990.01 9.33603" stroke="#A5BFCC" stroke-opacity="0.7"/>
<path d="M4.1593 70.3194C112.883 207.382 266.195 268.618 428.509 249.118C572.455 232.419 640.513 87.983 789.091 67.2796C1001 42.7107 1214.16 161.68 1427.3 171.488C1667.34 183.312 1941.05 -17.629 1985.51 14.7689" stroke="#A5BFCC" stroke-opacity="0.7"/>
<path d="M3.86218 67.5831C110.802 198.015 257.741 257.057 413.207 240.355C551.618 226.254 619.731 92.7649 764.353 73.5983C982.68 50.9722 1197.19 145.356 1416.64 153.467C1661.22 163.444 1921.73 -22.024 1981.02 21.1733" stroke="#A5BFCC" stroke-opacity="0.7"/>
<path d="M3.56506 65.9312C108.721 189.732 249.287 246.581 397.905 232.677C530.781 221.174 598.948 98.6311 739.616 81.0014C964.359 60.3181 1180.23 130.115 1405.99 136.53C1655.11 144.66 1902.41 -25.3346 1976.52 28.6621" stroke="#A5BFCC" stroke-opacity="0.7"/>
<path d="M3.26794 65.4913C106.64 182.661 240.832 237.317 382.604 226.21C509.944 217.306 578.165 105.709 714.878 89.6165C946.037 70.876 1163.26 116.087 1395.33 120.806C1648.99 127.089 1883.1 -27.4332 1972.02 37.3628" stroke="#A5BFCC" stroke-opacity="0.7"/>
<path d="M2.97089 66.407C104.559 176.946 232.378 229.408 367.302 221.1C489.107 214.793 557.383 114.143 690.14 99.5873C927.716 82.7896 1146.3 103.415 1384.68 106.437C1642.88 110.873 1863.78 -28.1761 1967.53 47.4192" stroke="#A5BFCC" stroke-opacity="0.7"/>
<path d="M2.67383 68.8375C102.477 172.746 223.923 223.014 352.001 217.504C468.27 213.795 536.6 124.092 665.403 111.073C909.394 96.2178 1129.33 92.2568 1374.02 93.5835C1636.76 96.1717 1844.46 -27.4043 1963.03 58.9903" stroke="#A5BFCC" stroke-opacity="0.7"/>
<path d="M2.37677 72.9542C100.396 170.231 215.469 218.306 336.699 215.594C447.434 214.483 515.817 135.727 640.665 124.244C891.073 111.332 1112.37 82.7852 1363.37 82.4157C1630.64 83.1568 1825.15 -24.9463 1958.54 72.2477" stroke="#A5BFCC" stroke-opacity="0.7"/>
<path d="M2.07965 78.938C98.3152 169.584 207.015 215.465 321.397 215.551C426.597 217.038 495.035 149.229 615.927 139.283C872.751 128.314 1095.4 75.1807 1352.71 73.1151C1624.53 72.009 1805.83 -20.6211 1954.04 87.3722" stroke="#A5BFCC" stroke-opacity="0.7"/>
<path d="M1.78253 86.9588C96.234 170.974 198.56 214.662 306.096 217.545C405.76 221.63 474.252 164.768 591.19 156.359C854.43 147.333 1078.44 69.6132 1342.06 65.8515C1618.41 62.8982 1786.51 -14.259 1949.55 104.534" stroke="#A5BFCC" stroke-opacity="0.7"/>
<path d="M1.48547 97.1515C94.1528 174.536 190.106 216.03 290.794 221.712C384.923 228.394 453.469 182.479 566.452 175.607C836.108 168.523 1061.47 66.2176 1331.4 60.7598C1612.29 55.9593 1767.19 -5.72497 1945.05 123.867" stroke="#A5BFCC" stroke-opacity="0.7"/>
<path d="M1.18829 109.557C92.0716 180.31 181.652 219.611 275.493 228.091C364.086 237.371 432.686 202.402 541.714 197.067C817.787 191.927 1044.51 65.0349 1320.74 57.8809C1606.18 51.2332 1747.88 5.02193 1940.55 145.413" stroke="#A5BFCC" stroke-opacity="0.7"/>
<path d="M0.891235 124.048C89.9904 188.17 173.197 225.277 260.191 236.555C343.249 248.434 411.904 224.411 516.976 220.613C799.465 217.415 1027.54 65.9375 1310.09 57.0874C1600.06 48.5925 1728.56 17.8542 1936.06 169.045" stroke="#A5BFCC" stroke-opacity="0.7"/>
<path d="M0.594177 140.258C87.9093 197.749 164.743 232.663 244.889 246.739C322.412 261.215 391.121 248.139 492.239 245.878C781.144 244.623 1010.58 68.5588 1299.43 58.0126C1593.95 47.6706 1709.24 32.4052 1931.56 194.395" stroke="#A5BFCC" stroke-opacity="0.7"/>
<path d="M0.297241 157.638C85.8283 208.498 156.289 241.218 229.588 258.092C301.576 275.166 370.339 273.037 467.501 272.313C762.823 273.001 993.614 72.3506 1288.78 60.1083C1587.83 47.919 1689.93 48.1265 1927.07 220.916" stroke="#A5BFCC" stroke-opacity="0.7"/>
</svg>
