<svg width="864" height="256" viewBox="0 0 864 256" fill="none" xmlns="http://www.w3.org/2000/svg">
<path d="M100.792 160.703C100.792 161.977 100.403 163.216 99.6833 164.274C98.9642 165.329 97.948 166.156 96.7661 166.668C95.5848 167.18 94.2781 167.362 92.9976 167.197C91.7168 167.032 90.5026 166.525 89.501 165.724C89.0973 165.401 88.8691 164.907 88.885 164.391C88.9008 163.874 89.1588 163.395 89.5815 163.098C91.33 161.867 92.8698 160.401 94.1522 158.751C94.2 158.689 94.252 158.631 94.3079 158.577C94.5736 158.321 94.771 158.02 94.894 157.7C95.0167 157.38 95.0642 157.042 95.0358 156.709C95.0074 156.375 94.9031 156.046 94.7248 155.743C94.5461 155.439 94.2957 155.167 93.9842 154.949C93.6724 154.731 93.3085 154.574 92.9158 154.493C92.5231 154.413 92.1156 154.412 91.7223 154.49C91.3291 154.569 90.9643 154.725 90.6511 154.941C90.3383 155.158 90.0862 155.429 89.9059 155.732C89.8885 155.761 89.8702 155.79 89.8511 155.818C88.6057 157.641 86.8917 159.122 84.8811 160.131C82.8709 161.14 80.6254 161.646 78.3573 161.607C78.3135 161.606 78.2698 161.603 78.2262 161.599C76.3002 161.411 74.4395 160.815 72.7841 159.851C71.1294 158.887 69.7195 157.579 68.6669 156.017C66.0671 152.188 64.8304 147.667 65.152 143.114C65.4735 138.562 67.3344 134.24 70.4436 130.774C71.7021 129.36 73.2781 128.24 75.0488 127.49C76.8204 126.74 78.7456 126.377 80.6813 126.427C80.702 126.427 80.7227 126.428 80.7434 126.429C81.5007 126.477 82.2321 126.239 82.7772 125.792C83.3188 125.348 83.6259 124.742 83.6706 124.121C83.7152 123.501 83.4982 122.871 83.0338 122.372C82.5681 121.872 81.8892 121.545 81.1363 121.495C78.3583 121.358 75.5864 121.822 73.0359 122.849C70.4821 123.877 68.2238 125.44 66.4316 127.409C66.4215 127.42 66.4112 127.431 66.4008 127.442C64.1216 129.812 62.3852 132.586 61.2912 135.593C61.1198 136.064 60.7425 136.431 60.2667 136.59C59.7909 136.749 59.2686 136.682 58.8484 136.408C56.2795 134.734 54.1131 132.558 52.4999 130.022C50.8864 127.486 49.8649 124.649 49.5095 121.701C49.1541 118.753 49.4739 115.769 50.4454 112.95C51.4168 110.132 53.0156 107.549 55.1279 105.371C57.2398 103.193 59.8165 101.47 62.682 100.312C65.5474 99.1536 68.6394 98.5845 71.7523 98.64C74.8652 98.6955 77.9326 99.3745 80.7501 100.635C83.5678 101.895 86.0743 103.709 88.0978 105.962C88.1174 105.983 88.1364 106.006 88.1548 106.029C88.3737 106.3 88.6555 106.533 88.9868 106.708C89.3182 106.883 89.6893 106.995 90.0767 107.032C90.4642 107.069 90.8547 107.031 91.2227 106.92C91.5906 106.81 91.9238 106.632 92.2036 106.401C92.483 106.171 92.7021 105.896 92.8529 105.595C93.0035 105.295 93.0844 104.974 93.0946 104.651C93.1048 104.328 93.0442 104.004 92.9136 103.698C92.7827 103.392 92.5828 103.106 92.3202 102.863C92.3042 102.848 92.2884 102.833 92.273 102.817C92.2594 102.804 92.246 102.79 92.2328 102.776C89.8545 100.214 86.9516 98.116 83.6901 96.6089C80.4283 95.1017 76.8759 94.2168 73.2399 94.0087C69.604 93.8006 65.9615 94.2736 62.5258 95.3986C59.0901 96.5236 55.9332 98.2769 53.237 100.552C52.7967 100.923 52.1941 101.037 51.6485 100.852C51.1029 100.667 50.694 100.21 50.5707 99.6476C50.3378 98.5846 50.2151 97.5024 50.2046 96.4163L50.2045 96.4079C50.1873 92.6489 51.4577 88.9959 53.8105 85.9871C56.1618 82.9801 59.4664 80.7782 63.2255 79.6864C63.7933 79.5215 64.4058 79.674 64.8299 80.0858C68.2542 83.4114 72.8833 85.4501 77.8368 85.7858C78.593 85.833 79.3232 85.5945 79.8675 85.1481C80.4091 84.704 80.7162 84.0987 80.7609 83.4774C80.8055 82.8573 80.5885 82.2276 80.1241 81.7286C79.658 81.2277 78.9785 80.9007 78.2249 80.8508C74.5162 80.6576 71.016 79.1005 68.4904 76.4855C65.9588 73.8644 64.6121 70.3898 64.7768 66.8125L64.7775 66.7979L64.7786 66.7799C64.8953 65.0112 65.3914 63.2868 66.2329 61.7109C67.0737 60.1363 68.2407 58.7447 69.6583 57.6157C72.5517 55.2939 76.2808 54.1423 80.0447 54.3839L80.0487 54.3842C81.353 54.4711 82.6407 54.7173 83.8795 55.1173L83.8982 55.1235C84.2477 55.2409 84.6213 55.2929 84.9961 55.2746C85.3659 55.2566 85.7254 55.1708 86.0539 55.0248C86.3743 54.8713 86.6534 54.6639 86.8786 54.4187C87.1068 54.1702 87.2753 53.8879 87.38 53.5898L87.3874 53.5691C87.9313 52.0851 89.0086 50.8552 90.4004 50.078C91.7905 49.3018 93.4174 49.0184 94.9962 49.267C96.5756 49.5157 98.0298 50.2851 99.0905 51.463C100.153 52.6432 100.75 54.1569 100.748 55.7372L100.792 160.703Z" fill="#A6BFCC"/>
<path d="M106.255 97.8585C106.255 96.951 106.991 96.2154 107.899 96.2154H114.462C114.704 96.2154 114.947 96.26 115.176 96.3491C115.405 96.4382 115.619 96.5712 115.804 96.745C115.99 96.9191 116.143 97.1315 116.249 97.373C116.356 97.6147 116.412 97.8778 116.412 98.146V118.108C116.412 118.655 116.18 119.157 115.804 119.509C115.432 119.859 114.947 120.039 114.462 120.039H107.899C106.991 120.039 106.255 119.303 106.255 118.396V97.8585Z" fill="#A6BFCC"/>
<path d="M129.692 126.775C129.692 128.335 129.031 129.808 127.892 130.877C126.757 131.943 125.237 132.526 123.673 132.526H107.899C106.991 132.526 106.255 131.79 106.255 130.883V126.611C106.255 125.704 106.991 124.968 107.899 124.968H114.46C116.452 124.958 118.341 124.208 119.719 122.911C121.095 121.617 121.848 119.888 121.854 118.107L121.854 118.104V98.1502L121.854 98.1474C121.848 96.3638 121.092 94.6321 119.713 93.3375C118.33 92.0394 116.435 91.2915 114.438 91.2866L114.437 91.2866L107.877 91.2866C106.969 91.2866 106.233 90.551 106.233 89.6435V85.3717C106.233 84.4642 106.969 83.7286 107.877 83.7286H123.651C125.215 83.7286 126.735 84.311 127.87 85.3771C129.009 86.4462 129.67 87.919 129.67 89.4782L129.692 126.775Z" fill="#A6BFCC"/>
<path d="M162.156 66.436C163.04 66.4361 163.912 66.6822 164.662 67.1535C165.412 67.6253 166.013 68.3065 166.371 69.1227C166.73 69.9405 166.824 70.8465 166.636 71.7209C166.449 72.5943 165.992 73.3805 165.342 73.9863C164.693 74.591 163.879 74.9907 163.009 75.1493C162.139 75.3078 161.237 75.2209 160.414 74.8959C159.591 74.5706 158.872 74.0165 158.361 73.2887C157.85 72.5593 157.573 71.6921 157.58 70.7976C157.59 69.6035 158.102 68.4839 158.969 67.676C159.833 66.8714 160.98 66.436 162.156 66.436Z" fill="#A6BFCC"/>
<path d="M137.335 48.9792C138.22 48.973 139.095 49.2138 139.849 49.681C140.604 50.1488 141.21 50.8274 141.574 51.6428C141.938 52.4597 142.037 53.3666 141.853 54.2434C141.67 55.1191 141.215 55.9087 140.566 56.5179C139.919 57.126 139.105 57.5289 138.234 57.69C137.363 57.8511 136.459 57.7661 135.635 57.442C134.809 57.1177 134.089 56.5638 133.577 55.8352C133.063 55.1052 132.786 54.2367 132.793 53.3408C132.802 52.1525 133.31 51.0378 134.17 50.2306C135.026 49.4265 136.165 48.9874 137.335 48.9792Z" fill="#A6BFCC"/>
<path d="M137.335 158.506C138.219 158.499 139.093 158.739 139.846 159.205C140.6 159.672 141.206 160.348 141.571 161.161C141.936 161.976 142.037 162.882 141.856 163.757C141.675 164.632 141.224 165.422 140.579 166.033C139.934 166.642 139.123 167.048 138.254 167.213C137.386 167.377 136.483 167.297 135.658 166.978C134.832 166.658 134.11 166.109 133.594 165.386C133.076 164.66 132.793 163.795 132.793 162.901C132.793 161.707 133.296 160.583 134.158 159.769C135.015 158.957 136.159 158.514 137.335 158.506Z" fill="#A6BFCC"/>
<path d="M162.156 141.049C163.038 141.049 163.909 141.294 164.658 141.764C165.408 142.234 166.009 142.913 166.368 143.728C166.728 144.543 166.824 145.448 166.639 146.321C166.454 147.194 166.001 147.98 165.354 148.588C164.708 149.194 163.897 149.596 163.029 149.758C162.161 149.92 161.261 149.838 160.438 149.518C159.614 149.197 158.893 148.649 158.378 147.925C157.863 147.201 157.58 146.337 157.58 145.444C157.58 144.244 158.089 143.115 158.957 142.3C159.822 141.488 160.974 141.049 162.156 141.049Z" fill="#A6BFCC"/>
<path d="M162.167 103.753C163.044 103.759 163.908 104.008 164.649 104.48C165.391 104.952 165.984 105.631 166.336 106.442C166.689 107.255 166.78 108.154 166.591 109.021C166.403 109.887 165.949 110.667 165.304 111.268C164.66 111.868 163.854 112.265 162.991 112.424C162.128 112.582 161.234 112.499 160.416 112.179C159.598 111.859 158.883 111.313 158.372 110.594C157.861 109.873 157.58 109.015 157.58 108.127C157.58 107.535 157.705 106.952 157.945 106.411C158.184 105.871 158.532 105.388 158.963 104.987C159.394 104.585 159.899 104.273 160.448 104.063C160.996 103.853 161.58 103.749 162.167 103.753Z" fill="#A6BFCC"/>
<path fill-rule="evenodd" clip-rule="evenodd" d="M214.428 87.5749C204.819 37.6862 160.908 0 108.191 0C48.4386 0 0 48.4145 0 108.137C0 136.685 11.0775 162.66 29.1535 181.981L24.4095 213.957C23.9642 216.958 25.2537 219.953 27.7403 221.693C30.2267 223.433 33.4836 223.62 36.1529 222.175L64.2379 206.975C74.6357 211.601 85.8953 214.635 97.7004 215.771C113.806 236.882 139.233 250.505 167.845 250.505C180.302 250.505 192.172 247.918 202.934 243.247L224.712 255.034C227.381 256.478 230.638 256.292 233.124 254.551C235.611 252.811 236.9 249.816 236.455 246.815L232.773 221.995C247.188 206.314 256 185.376 256 162.394C256 130.825 239.39 103.134 214.428 87.5749ZM119.297 215.711C132.112 227.374 149.147 234.485 167.845 234.485C179.286 234.485 190.084 231.828 199.675 227.106C202.005 225.958 204.748 226.011 207.032 227.247L218.249 233.318L216.34 220.453C215.966 217.932 216.815 215.384 218.625 213.59C231.817 200.518 239.972 182.415 239.972 162.394C239.972 141.26 230.873 122.25 216.377 109.064C215.911 164.619 173.53 210.183 119.297 215.711ZM145.919 74.2404C145.919 73.3329 146.655 72.5973 147.563 72.5973H151.129C151.825 72.5973 152.446 73.0356 152.679 73.6915C153.397 75.7164 154.851 77.4678 156.819 78.6275C158.788 79.7882 161.138 80.2758 163.463 79.9944C165.787 79.7131 167.917 78.6838 169.496 77.1053C171.072 75.5288 172 73.5046 172.147 71.3846C172.293 69.2652 171.653 67.1521 170.314 65.4057C168.972 63.6567 167.009 62.3806 164.747 61.82C162.484 61.2593 160.084 61.4556 157.963 62.3702C155.845 63.2843 154.154 64.8507 153.159 66.7787C152.877 67.3252 152.313 67.6685 151.698 67.6685H143.188C142.431 67.6685 141.725 67.9516 141.219 68.4261C140.717 68.8974 140.456 69.5137 140.456 70.1329V88.6166C140.456 89.5241 139.72 90.2597 138.812 90.2597H136.756C135.895 90.2597 135.18 89.5966 135.116 88.7391C134.917 86.0696 133.643 83.5478 131.519 81.6933C129.392 79.8362 126.574 78.793 123.633 78.7998L123.629 78.7998L119.91 78.7998C119.002 78.7998 118.266 78.0642 118.266 77.1567V56.7835C118.266 55.8761 119.002 55.1404 119.91 55.1404H126.276C126.974 55.1404 127.596 55.5812 127.827 56.2398C128.54 58.2717 129.992 60.0315 131.961 61.1995C133.931 62.3685 136.286 62.8638 138.617 62.5879C140.948 62.3121 143.086 61.2858 144.673 59.7072C146.258 58.1307 147.194 56.1035 147.346 53.9785C147.499 51.8542 146.862 49.7345 145.524 47.981C144.184 46.2249 142.219 44.9415 139.953 44.3751C137.685 43.8085 135.279 44.0006 133.152 44.9136C131.026 45.826 129.328 47.3934 128.326 49.3245C128.044 49.8695 127.481 50.2116 126.867 50.2116H115.578C114.821 50.2116 114.115 50.4947 113.609 50.9693C113.107 51.4405 112.846 52.0569 112.846 52.676V77.1567C112.846 78.0642 112.11 78.7998 111.202 78.7998H107.899C106.991 78.7998 106.255 78.0642 106.255 77.1567V55.5539C106.247 53.154 105.432 50.8065 103.908 48.8473C102.382 46.8857 100.221 45.4114 97.7234 44.6541C95.2249 43.8965 92.5324 43.9003 90.0363 44.6647C87.5409 45.429 85.3849 46.9091 83.8656 48.8748C83.4975 49.3509 82.8986 49.5879 82.3042 49.4926C81.6831 49.393 81.0568 49.3234 80.4278 49.2843L80.4239 49.284C75.1615 48.9437 69.9825 50.5641 66.0073 53.7699L66.0015 53.7746C63.0113 56.1639 60.8875 59.3423 59.8964 62.873C58.9058 66.4023 59.0893 70.1307 60.4251 73.5625C60.7542 74.4078 60.3356 75.3598 59.49 75.6892C56.4526 76.8723 53.7136 78.6257 51.4396 80.8354C49.166 83.0449 47.4061 85.663 46.2631 88.5244C45.1201 91.3855 44.6166 94.4327 44.7808 97.4786C44.9451 100.525 45.774 103.51 47.2205 106.252C47.4805 106.744 47.4731 107.335 47.2008 107.821C43.8503 113.801 43.1669 120.771 45.2895 127.213C47.4133 133.659 52.1855 139.084 58.5964 142.268C59.1795 142.557 59.5367 143.164 59.507 143.814C59.2645 149.129 60.8383 154.388 64.0146 158.823L64.0282 158.842C65.5315 161.006 67.548 162.828 69.9301 164.162C72.2946 165.486 74.9538 166.292 77.7074 166.515H78.86C79.8584 166.506 80.8536 166.411 81.8334 166.234C82.4669 166.119 83.1092 166.384 83.4768 166.912C84.9172 168.983 87.0449 170.579 89.5566 171.443C92.0691 172.307 94.8159 172.387 97.3824 171.668C99.9484 170.95 102.18 169.478 103.756 167.491C105.331 165.506 106.17 163.111 106.168 160.664L106.168 160.662L106.168 139.098C106.168 138.19 106.904 137.455 107.811 137.455H111.115C112.023 137.455 112.759 138.19 112.759 139.098V163.578C112.759 164.198 113.02 164.814 113.522 165.285C114.027 165.76 114.734 166.043 115.491 166.043H126.823C127.438 166.043 128.001 166.385 128.283 166.931C129.285 168.868 130.987 170.44 133.117 171.356C135.249 172.272 137.661 172.466 139.934 171.899C142.207 171.332 144.177 170.046 145.521 168.285C146.862 166.528 147.501 164.403 147.348 162.273C147.195 160.143 146.256 158.111 144.667 156.53C143.076 154.948 140.932 153.92 138.595 153.644C136.258 153.369 133.899 153.866 131.924 155.039C129.951 156.211 128.497 157.976 127.784 160.013C127.553 160.673 126.931 161.114 126.232 161.114H119.954C119.046 161.114 118.31 160.378 118.31 159.471V139.098C118.31 138.19 119.046 137.455 119.954 137.455H123.677C126.618 137.461 129.436 136.418 131.563 134.561C133.687 132.707 134.96 130.185 135.16 127.515C135.224 126.658 135.939 125.995 136.799 125.995H138.812C139.72 125.995 140.456 126.73 140.456 127.638V146.122C140.456 146.741 140.717 147.357 141.219 147.828C141.725 148.303 142.431 148.586 143.188 148.586H151.698C152.315 148.586 152.879 148.931 153.161 149.479C154.159 151.424 155.858 153.005 157.991 153.929C160.125 154.854 162.543 155.055 164.823 154.493C167.103 153.93 169.082 152.646 170.434 150.885C171.784 149.126 172.431 146.997 172.283 144.862C172.135 142.725 171.199 140.686 169.61 139.099C168.019 137.509 165.872 136.474 163.531 136.193C161.188 135.912 158.822 136.407 156.84 137.579C154.86 138.751 153.398 140.518 152.68 142.559C152.449 143.217 151.827 143.657 151.129 143.657H147.563C146.655 143.657 145.919 142.922 145.919 142.014V123.53C145.919 122.911 145.658 122.295 145.156 121.824C144.651 121.349 143.944 121.066 143.188 121.066H136.799C135.891 121.066 135.155 120.33 135.155 119.423V112.235C135.155 111.327 135.891 110.592 136.799 110.592H151.348C152.004 110.592 152.598 110.982 152.858 111.584C153.715 113.572 155.292 115.241 157.344 116.286C159.397 117.331 161.784 117.677 164.09 117.256C166.395 116.834 168.453 115.677 169.92 114.005C171.385 112.336 172.174 110.257 172.174 108.127C172.174 105.997 171.385 103.919 169.92 102.25C168.453 100.578 166.395 99.4203 164.09 98.9989C161.784 98.5774 159.397 98.9234 157.344 99.9688C155.292 101.013 153.715 102.683 152.858 104.67C152.598 105.273 152.004 105.663 151.348 105.663H136.799C135.891 105.663 135.155 104.927 135.155 104.02V96.8316C135.155 95.9242 135.891 95.1885 136.799 95.1885H143.188C143.944 95.1885 144.651 94.9054 145.156 94.4309C145.658 93.9596 145.919 93.3433 145.919 92.7241V74.2404Z" fill="#A6BFCC"/>
<path d="M431.625 103.397C427.191 103.397 423.29 106.018 421.694 109.863C414.6 105.319 406.088 102.698 397.044 102.698C372.039 102.698 352 122.795 352 147.262C352 171.903 372.039 192 397.044 192C406.265 192 414.778 189.379 421.871 184.66C423.644 188.33 427.368 190.777 431.625 190.777C437.654 190.777 442.619 186.058 442.619 180.291V113.882C442.619 108.115 437.654 103.397 431.625 103.397ZM397.398 169.456C384.985 169.456 374.877 159.495 374.877 147.261C374.877 135.203 384.985 125.242 397.398 125.242C409.812 125.242 419.92 135.203 419.92 147.261C419.92 159.495 409.812 169.456 397.398 169.456Z" fill="#A6BFCC"/>
<path d="M477.311 85.8578C477.311 91.2697 472.814 95.8086 467.453 95.8086C462.092 95.8086 457.596 91.2697 457.596 85.8578C457.596 80.2714 462.092 75.907 467.453 75.907C472.814 75.907 477.311 80.2714 477.311 85.8578ZM467.626 192C461.228 192 456.212 186.937 456.212 180.653V115.012C456.212 108.727 461.228 103.665 467.626 103.665C473.852 103.665 478.867 108.727 478.867 115.012V180.653C478.867 186.937 473.852 192 467.626 192Z" fill="#A6BFCC"/>
<path d="M577.136 147.546H573.941V75.2432C573.941 69.1892 568.792 64 562.579 64C559.028 64 555.477 65.2108 553.169 68.4973L494.583 152.043C489.612 159.135 493.695 168.13 503.46 168.13H551.039V180.93C551.039 186.984 556.187 192 562.401 192C568.792 192 573.941 186.984 573.941 180.93V168.13H577.136C582.995 168.13 587.611 163.459 587.611 157.924C587.611 152.216 582.995 147.546 577.136 147.546L577.136 147.546ZM523.344 147.546L551.039 107.935V147.546H523.344Z" fill="#F4511C"/>
<path d="M641.066 169.275H637.001C630.639 169.275 625.513 164.166 625.513 157.824V123.295H642.48C647.959 123.295 652.201 118.891 652.201 113.606C652.201 108.321 647.959 103.917 642.48 103.917H625.513V87.3577C625.513 81.0158 620.388 75.907 614.202 75.907C607.839 75.907 602.714 81.0158 602.714 87.3577V157.824C602.714 176.674 618.09 192 637.001 192H641.066C647.429 192 652.555 186.891 652.555 180.549C652.555 174.383 647.429 169.275 641.066 169.275V169.275Z" fill="#A6BFCC"/>
<path d="M735.2 103.397C730.766 103.397 726.865 106.018 725.269 109.863C718.175 105.319 709.663 102.698 700.619 102.698C675.614 102.698 655.575 122.795 655.575 147.262C655.575 171.903 675.614 192 700.619 192C709.84 192 718.353 189.379 725.446 184.66C727.22 188.33 730.944 190.777 735.2 190.777C741.229 190.777 746.195 186.058 746.195 180.291V113.882C746.195 108.115 741.229 103.397 735.2 103.397ZM700.974 169.456C688.56 169.456 678.452 159.495 678.452 147.261C678.452 135.203 688.56 125.242 700.974 125.242C713.387 125.242 723.495 135.203 723.495 147.261C723.495 159.495 713.387 169.456 700.974 169.456Z" fill="#A6BFCC"/>
<path d="M772.712 192C766.486 192 761.298 186.937 761.298 180.653V87.2544C761.298 80.9697 766.486 75.907 772.712 75.907C778.765 75.907 783.953 80.9697 783.953 87.2544V180.653C783.953 186.937 778.765 192 772.712 192Z" fill="#A6BFCC"/>
<path d="M860.965 172.531L837.712 148.113L860.07 122.126C863.827 117.417 863.111 110.266 858.639 106.255C853.452 102.592 845.94 103.29 842.005 107.65L819.109 134.509V87.0693C819.109 80.7905 813.564 75.907 807.662 75.907C801.043 75.907 796.035 80.7905 796.035 87.0693V180.205C796.035 186.658 801.043 191.716 807.662 191.716C813.564 191.716 819.109 186.658 819.109 180.205V162.066L843.793 188.228C848.444 193.286 855.956 193.112 860.428 188.577C864.721 184.217 865.436 177.24 860.965 172.531V172.531Z" fill="#A6BFCC"/>
</svg>
