<svg width="704" height="672" viewBox="0 0 704 672" fill="none" xmlns="http://www.w3.org/2000/svg">
<path d="M324.792 256.703C324.792 257.977 324.403 259.216 323.683 260.274C322.964 261.329 321.948 262.156 320.766 262.668C319.585 263.18 318.278 263.362 316.998 263.197C315.717 263.032 314.503 262.525 313.501 261.724C313.097 261.401 312.869 260.907 312.885 260.391C312.901 259.874 313.159 259.395 313.581 259.098C315.33 257.867 316.87 256.401 318.152 254.751C318.2 254.689 318.252 254.631 318.308 254.577C318.574 254.321 318.771 254.02 318.894 253.7C319.017 253.38 319.064 253.042 319.036 252.709C319.007 252.375 318.903 252.046 318.725 251.743C318.546 251.439 318.296 251.167 317.984 250.949C317.672 250.731 317.309 250.574 316.916 250.493C316.523 250.413 316.116 250.412 315.722 250.49C315.329 250.569 314.964 250.725 314.651 250.941C314.338 251.158 314.086 251.429 313.906 251.732C313.889 251.761 313.87 251.79 313.851 251.818C312.606 253.641 310.892 255.122 308.881 256.131C306.871 257.14 304.625 257.646 302.357 257.607C302.314 257.606 302.27 257.603 302.226 257.599C300.3 257.411 298.44 256.815 296.784 255.851C295.129 254.887 293.719 253.579 292.667 252.017C290.067 248.188 288.83 243.667 289.152 239.114C289.474 234.562 291.334 230.24 294.444 226.774C295.702 225.36 297.278 224.24 299.049 223.49C300.82 222.74 302.746 222.377 304.681 222.427C304.702 222.427 304.723 222.428 304.743 222.429C305.501 222.477 306.232 222.239 306.777 221.792C307.319 221.348 307.626 220.742 307.671 220.121C307.715 219.501 307.498 218.871 307.034 218.372C306.568 217.872 305.889 217.545 305.136 217.495C302.358 217.358 299.586 217.822 297.036 218.849C294.482 219.877 292.224 221.44 290.432 223.409C290.421 223.42 290.411 223.431 290.401 223.442C288.122 225.812 286.385 228.586 285.291 231.593C285.12 232.064 284.743 232.431 284.267 232.59C283.791 232.749 283.269 232.682 282.848 232.408C280.279 230.734 278.113 228.558 276.5 226.022C274.886 223.486 273.865 220.649 273.51 217.701C273.154 214.753 273.474 211.769 274.445 208.95C275.417 206.132 277.016 203.549 279.128 201.371C281.24 199.193 283.817 197.47 286.682 196.312C289.547 195.154 292.639 194.585 295.752 194.64C298.865 194.696 301.933 195.374 304.75 196.635C307.568 197.895 310.074 199.709 312.098 201.962C312.117 201.983 312.136 202.006 312.155 202.029C312.374 202.3 312.655 202.533 312.987 202.708C313.318 202.883 313.689 202.995 314.077 203.032C314.464 203.069 314.855 203.031 315.223 202.92C315.591 202.81 315.924 202.632 316.204 202.401C316.483 202.171 316.702 201.896 316.853 201.595C317.004 201.295 317.084 200.974 317.095 200.651C317.105 200.328 317.044 200.004 316.914 199.698C316.783 199.392 316.583 199.106 316.32 198.863C316.304 198.848 316.288 198.833 316.273 198.817C316.259 198.804 316.246 198.79 316.233 198.776C313.854 196.214 310.952 194.116 307.69 192.609C304.428 191.102 300.876 190.217 297.24 190.009C293.604 189.801 289.962 190.274 286.526 191.399C283.09 192.524 279.933 194.277 277.237 196.552C276.797 196.923 276.194 197.037 275.648 196.852C275.103 196.667 274.694 196.21 274.571 195.648C274.338 194.585 274.215 193.502 274.205 192.416L274.205 192.408C274.187 188.649 275.458 184.996 277.811 181.987C280.162 178.98 283.466 176.778 287.226 175.686C287.793 175.521 288.406 175.674 288.83 176.086C292.254 179.411 296.883 181.45 301.837 181.786C302.593 181.833 303.323 181.594 303.867 181.148C304.409 180.704 304.716 180.099 304.761 179.477C304.805 178.857 304.588 178.228 304.124 177.729C303.658 177.228 302.978 176.901 302.225 176.851C298.516 176.658 295.016 175.101 292.49 172.486C289.959 169.864 288.612 166.39 288.777 162.812L288.778 162.798L288.779 162.78C288.895 161.011 289.391 159.287 290.233 157.711C291.074 156.136 292.241 154.745 293.658 153.616C296.552 151.294 300.281 150.142 304.045 150.384L304.049 150.384C305.353 150.471 306.641 150.717 307.879 151.117L307.898 151.123C308.248 151.241 308.621 151.293 308.996 151.275C309.366 151.257 309.725 151.171 310.054 151.025C310.374 150.871 310.653 150.664 310.879 150.419C311.107 150.17 311.275 149.888 311.38 149.59L311.387 149.569C311.931 148.085 313.009 146.855 314.4 146.078C315.791 145.302 317.417 145.018 318.996 145.267C320.576 145.516 322.03 146.285 323.09 147.463C324.153 148.643 324.75 150.157 324.748 151.737L324.792 256.703Z" fill="#F4511C"/>
<path d="M330.255 193.858C330.255 192.951 330.991 192.215 331.899 192.215H338.462C338.704 192.215 338.947 192.26 339.176 192.349C339.405 192.438 339.619 192.571 339.804 192.745C339.99 192.919 340.143 193.132 340.249 193.373C340.356 193.615 340.412 193.878 340.412 194.146V214.108C340.412 214.655 340.18 215.157 339.804 215.509C339.432 215.859 338.947 216.039 338.462 216.039H331.899C330.991 216.039 330.255 215.303 330.255 214.396V193.858Z" fill="#F4511C"/>
<path d="M353.692 222.775C353.692 224.335 353.031 225.808 351.892 226.877C350.757 227.943 349.237 228.526 347.673 228.526H331.899C330.991 228.526 330.255 227.79 330.255 226.883V222.611C330.255 221.704 330.991 220.968 331.899 220.968H338.46C340.452 220.958 342.341 220.208 343.719 218.911C345.095 217.617 345.848 215.888 345.854 214.107L345.854 214.104V194.15L345.854 194.147C345.848 192.364 345.092 190.632 343.713 189.338C342.33 188.039 340.435 187.292 338.438 187.287L338.437 187.287L331.877 187.287C330.969 187.287 330.233 186.551 330.233 185.644V181.372C330.233 180.464 330.969 179.729 331.877 179.729H347.651C349.215 179.729 350.735 180.311 351.87 181.377C353.009 182.446 353.67 183.919 353.67 185.478L353.692 222.775Z" fill="#F4511C"/>
<path d="M386.156 162.436C387.04 162.436 387.912 162.682 388.662 163.153C389.412 163.625 390.013 164.306 390.371 165.123C390.73 165.941 390.824 166.846 390.636 167.721C390.449 168.594 389.992 169.381 389.342 169.986C388.693 170.591 387.879 170.991 387.009 171.149C386.139 171.308 385.237 171.221 384.414 170.896C383.591 170.571 382.872 170.017 382.361 169.289C381.85 168.559 381.573 167.692 381.58 166.798C381.59 165.603 382.102 164.484 382.969 163.676C383.833 162.871 384.98 162.436 386.156 162.436Z" fill="#F4511C"/>
<path d="M361.335 144.979C362.22 144.973 363.095 145.214 363.849 145.681C364.604 146.149 365.21 146.827 365.574 147.643C365.938 148.46 366.037 149.367 365.853 150.243C365.67 151.119 365.215 151.909 364.566 152.518C363.919 153.126 363.105 153.529 362.234 153.69C361.363 153.851 360.459 153.766 359.635 153.442C358.809 153.118 358.089 152.564 357.577 151.835C357.063 151.105 356.786 150.237 356.793 149.341C356.802 148.153 357.31 147.038 358.17 146.231C359.026 145.427 360.165 144.987 361.335 144.979Z" fill="#F4511C"/>
<path d="M361.335 254.506C362.219 254.499 363.093 254.739 363.846 255.205C364.6 255.672 365.206 256.348 365.571 257.161C365.936 257.976 366.037 258.882 365.856 259.757C365.675 260.632 365.224 261.422 364.579 262.033C363.934 262.642 363.123 263.048 362.254 263.213C361.386 263.377 360.483 263.297 359.658 262.978C358.832 262.658 358.11 262.109 357.594 261.386C357.076 260.66 356.793 259.795 356.793 258.901C356.793 257.707 357.296 256.583 358.158 255.769C359.015 254.957 360.159 254.514 361.335 254.506Z" fill="#F4511C"/>
<path d="M386.156 237.049C387.038 237.049 387.909 237.294 388.658 237.764C389.408 238.234 390.009 238.913 390.368 239.728C390.728 240.543 390.824 241.448 390.639 242.321C390.454 243.194 390.001 243.98 389.354 244.588C388.708 245.194 387.897 245.596 387.029 245.758C386.161 245.92 385.261 245.838 384.438 245.518C383.614 245.197 382.893 244.649 382.378 243.925C381.863 243.201 381.58 242.337 381.58 241.444C381.58 240.244 382.089 239.115 382.957 238.3C383.822 237.488 384.974 237.049 386.156 237.049Z" fill="#F4511C"/>
<path d="M386.167 199.753C387.044 199.759 387.908 200.008 388.649 200.48C389.391 200.952 389.984 201.631 390.336 202.442C390.689 203.255 390.78 204.154 390.591 205.021C390.403 205.887 389.949 206.667 389.304 207.268C388.66 207.868 387.854 208.265 386.991 208.424C386.128 208.582 385.234 208.499 384.416 208.179C383.598 207.859 382.883 207.313 382.372 206.594C381.861 205.873 381.58 205.015 381.58 204.127C381.58 203.535 381.705 202.952 381.945 202.411C382.184 201.871 382.532 201.388 382.963 200.987C383.394 200.585 383.899 200.273 384.448 200.063C384.996 199.853 385.58 199.749 386.167 199.753Z" fill="#F4511C"/>
<path fill-rule="evenodd" clip-rule="evenodd" d="M438.428 183.575C428.819 133.686 384.908 96 332.191 96C272.439 96 224 144.415 224 204.137C224 232.685 235.077 258.66 253.154 277.981L248.409 309.957C247.964 312.958 249.254 315.953 251.74 317.693C254.227 319.433 257.484 319.62 260.153 318.175L288.238 302.975C298.636 307.601 309.895 310.635 321.7 311.771C337.806 332.882 363.233 346.505 391.845 346.505C404.302 346.505 416.172 343.918 426.934 339.247L448.712 351.034C451.381 352.478 454.638 352.292 457.124 350.551C459.611 348.811 460.9 345.816 460.455 342.815L456.773 317.995C471.188 302.314 480 281.376 480 258.394C480 226.825 463.39 199.134 438.428 183.575ZM343.297 311.711C356.112 323.374 373.147 330.485 391.845 330.485C403.286 330.485 414.084 327.828 423.675 323.106C426.005 321.958 428.748 322.011 431.032 323.247L442.249 329.318L440.34 316.453C439.966 313.932 440.815 311.384 442.625 309.59C455.817 296.518 463.972 278.415 463.972 258.394C463.972 237.26 454.873 218.25 440.377 205.064C439.911 260.619 397.53 306.183 343.297 311.711ZM369.919 170.24C369.919 169.333 370.655 168.597 371.563 168.597H375.129C375.825 168.597 376.446 169.036 376.679 169.691C377.397 171.716 378.851 173.468 380.819 174.628C382.788 175.788 385.138 176.276 387.463 175.994C389.787 175.713 391.917 174.684 393.496 173.105C395.072 171.529 396 169.505 396.147 167.385C396.293 165.265 395.653 163.152 394.314 161.406C392.972 159.657 391.009 158.381 388.747 157.82C386.484 157.259 384.084 157.456 381.963 158.37C379.845 159.284 378.154 160.851 377.159 162.779C376.877 163.325 376.313 163.668 375.698 163.668H367.188C366.431 163.668 365.725 163.952 365.219 164.426C364.717 164.897 364.456 165.514 364.456 166.133V184.617C364.456 185.524 363.72 186.26 362.812 186.26H360.756C359.895 186.26 359.18 185.597 359.116 184.739C358.917 182.07 357.643 179.548 355.519 177.693C353.392 175.836 350.574 174.793 347.633 174.8L347.629 174.8L343.91 174.8C343.002 174.8 342.266 174.064 342.266 173.157V152.784C342.266 151.876 343.002 151.14 343.91 151.14H350.276C350.974 151.14 351.596 151.581 351.827 152.24C352.54 154.272 353.992 156.032 355.961 157.2C357.931 158.369 360.286 158.864 362.617 158.588C364.948 158.312 367.086 157.286 368.673 155.707C370.258 154.131 371.194 152.104 371.346 149.979C371.499 147.854 370.862 145.734 369.524 143.981C368.184 142.225 366.219 140.942 363.953 140.375C361.685 139.808 359.279 140.001 357.152 140.914C355.026 141.826 353.328 143.393 352.326 145.325C352.044 145.87 351.481 146.212 350.867 146.212H339.578C338.821 146.212 338.115 146.495 337.609 146.969C337.107 147.441 336.846 148.057 336.846 148.676V173.157C336.846 174.064 336.11 174.8 335.202 174.8H331.899C330.991 174.8 330.255 174.064 330.255 173.157V151.554C330.247 149.154 329.432 146.806 327.908 144.847C326.382 142.886 324.221 141.411 321.723 140.654C319.225 139.897 316.532 139.9 314.036 140.665C311.541 141.429 309.385 142.909 307.866 144.875C307.498 145.351 306.899 145.588 306.304 145.493C305.683 145.393 305.057 145.323 304.428 145.284L304.424 145.284C299.161 144.944 293.983 146.564 290.007 149.77L290.002 149.775C287.011 152.164 284.888 155.342 283.896 158.873C282.906 162.402 283.089 166.131 284.425 169.562C284.754 170.408 284.336 171.36 283.49 171.689C280.453 172.872 277.714 174.626 275.44 176.835C273.166 179.045 271.406 181.663 270.263 184.524C269.12 187.385 268.617 190.433 268.781 193.479C268.945 196.525 269.774 199.51 271.221 202.252C271.481 202.744 271.473 203.335 271.201 203.821C267.85 209.801 267.167 216.771 269.289 223.213C271.413 229.659 276.185 235.084 282.596 238.268C283.18 238.557 283.537 239.164 283.507 239.814C283.265 245.129 284.838 250.388 288.015 254.823L288.028 254.842C289.531 257.006 291.548 258.828 293.93 260.162C296.295 261.486 298.954 262.292 301.707 262.515H302.86C303.858 262.506 304.854 262.411 305.833 262.234C306.467 262.119 307.109 262.384 307.477 262.912C308.917 264.983 311.045 266.579 313.557 267.443C316.069 268.307 318.816 268.387 321.382 267.668C323.948 266.95 326.18 265.478 327.756 263.491C329.331 261.506 330.17 259.111 330.168 256.664L330.168 256.662L330.168 235.098C330.168 234.19 330.904 233.455 331.811 233.455H335.115C336.023 233.455 336.759 234.19 336.759 235.098V259.578C336.759 260.198 337.02 260.814 337.522 261.285C338.027 261.76 338.734 262.043 339.491 262.043H350.823C351.438 262.043 352.001 262.385 352.283 262.931C353.285 264.868 354.987 266.44 357.117 267.356C359.249 268.272 361.661 268.466 363.934 267.899C366.207 267.332 368.177 266.046 369.521 264.285C370.862 262.528 371.501 260.403 371.348 258.273C371.195 256.143 370.256 254.111 368.667 252.53C367.076 250.948 364.932 249.92 362.595 249.644C360.258 249.369 357.899 249.866 355.924 251.039C353.951 252.211 352.497 253.976 351.784 256.013C351.553 256.673 350.931 257.114 350.232 257.114H343.954C343.046 257.114 342.31 256.378 342.31 255.471V235.098C342.31 234.19 343.046 233.455 343.954 233.455H347.677C350.618 233.461 353.436 232.418 355.563 230.561C357.687 228.707 358.96 226.185 359.16 223.515C359.224 222.658 359.939 221.995 360.799 221.995H362.812C363.72 221.995 364.456 222.73 364.456 223.638V242.122C364.456 242.741 364.717 243.357 365.219 243.828C365.725 244.303 366.431 244.586 367.188 244.586H375.698C376.315 244.586 376.879 244.931 377.161 245.479C378.159 247.424 379.858 249.005 381.991 249.929C384.125 250.854 386.543 251.055 388.823 250.493C391.103 249.93 393.082 248.646 394.434 246.885C395.784 245.126 396.431 242.997 396.283 240.862C396.135 238.725 395.199 236.686 393.61 235.099C392.019 233.509 389.872 232.474 387.531 232.193C385.188 231.912 382.822 232.407 380.84 233.579C378.86 234.751 377.398 236.518 376.68 238.559C376.449 239.217 375.827 239.657 375.129 239.657H371.563C370.655 239.657 369.919 238.922 369.919 238.014V219.53C369.919 218.911 369.658 218.295 369.156 217.824C368.651 217.349 367.944 217.066 367.188 217.066H360.799C359.891 217.066 359.155 216.33 359.155 215.423V208.235C359.155 207.327 359.891 206.592 360.799 206.592H375.348C376.004 206.592 376.598 206.982 376.858 207.584C377.715 209.572 379.292 211.241 381.344 212.286C383.397 213.331 385.784 213.677 388.09 213.256C390.395 212.834 392.453 211.677 393.92 210.005C395.385 208.336 396.174 206.257 396.174 204.127C396.174 201.997 395.385 199.919 393.92 198.25C392.453 196.578 390.395 195.42 388.09 194.999C385.784 194.577 383.397 194.923 381.344 195.969C379.292 197.013 377.715 198.683 376.858 200.67C376.598 201.273 376.004 201.663 375.348 201.663H360.799C359.891 201.663 359.155 200.927 359.155 200.02V192.832C359.155 191.924 359.891 191.189 360.799 191.189H367.188C367.944 191.189 368.651 190.905 369.156 190.431C369.658 189.96 369.919 189.343 369.919 188.724V170.24Z" fill="#F4511C"/>
<path d="M175.625 487.397C171.191 487.397 167.29 490.018 165.694 493.863C158.6 489.319 150.088 486.698 141.044 486.698C116.039 486.698 96 506.795 96 531.262C96 555.903 116.039 576 141.044 576C150.265 576 158.778 573.379 165.871 568.66C167.644 572.33 171.368 574.777 175.625 574.777C181.654 574.777 186.62 570.058 186.62 564.291V497.882C186.62 492.115 181.654 487.397 175.625 487.397ZM141.398 553.456C128.985 553.456 118.877 543.495 118.877 531.261C118.877 519.203 128.985 509.242 141.398 509.242C153.812 509.242 163.92 519.203 163.92 531.261C163.92 543.495 153.812 553.456 141.398 553.456Z" fill="#F4511C"/>
<path d="M221.311 469.858C221.311 475.27 216.814 479.809 211.453 479.809C206.092 479.809 201.596 475.27 201.596 469.858C201.596 464.271 206.092 459.907 211.453 459.907C216.814 459.907 221.311 464.271 221.311 469.858ZM211.626 576C205.228 576 200.212 570.937 200.212 564.653V499.012C200.212 492.727 205.228 487.665 211.626 487.665C217.852 487.665 222.867 492.727 222.867 499.012V564.653C222.867 570.937 217.852 576 211.626 576V576Z" fill="#F4511C"/>
<path d="M321.136 531.546H317.941V459.243C317.941 453.189 312.792 448 306.578 448C303.028 448 299.477 449.211 297.169 452.497L238.583 536.043C233.612 543.135 237.695 552.13 247.46 552.13H295.039V564.93C295.039 570.984 300.187 576 306.401 576C312.792 576 317.941 570.984 317.941 564.93V552.13H321.136C326.995 552.13 331.611 547.459 331.611 541.924C331.611 536.216 326.995 531.546 321.136 531.546L321.136 531.546ZM267.343 531.546L295.039 491.935V531.546H267.343Z" fill="#4A626D"/>
<path d="M385.066 553.275H381.001C374.639 553.275 369.513 548.166 369.513 541.824V507.296H386.48C391.959 507.296 396.201 502.891 396.201 497.606C396.201 492.321 391.959 487.917 386.48 487.917H369.513V471.358C369.513 465.016 364.388 459.907 358.202 459.907C351.839 459.907 346.714 465.016 346.714 471.358V541.824C346.714 560.674 362.09 576 381.001 576H385.066C391.429 576 396.555 570.891 396.555 564.549C396.555 558.383 391.429 553.275 385.066 553.275V553.275Z" fill="#F4511C"/>
<path d="M479.2 487.397C474.766 487.397 470.865 490.018 469.269 493.863C462.175 489.319 453.663 486.698 444.619 486.698C419.614 486.698 399.575 506.795 399.575 531.262C399.575 555.903 419.614 576 444.619 576C453.84 576 462.353 573.379 469.446 568.66C471.22 572.33 474.944 574.777 479.2 574.777C485.229 574.777 490.195 570.058 490.195 564.291V497.882C490.195 492.115 485.229 487.397 479.2 487.397ZM444.974 553.456C432.56 553.456 422.452 543.495 422.452 531.261C422.452 519.203 432.56 509.242 444.974 509.242C457.387 509.242 467.495 519.203 467.495 531.261C467.495 543.495 457.387 553.456 444.974 553.456Z" fill="#F4511C"/>
<path d="M516.712 576C510.486 576 505.298 570.937 505.298 564.653V471.254C505.298 464.97 510.486 459.907 516.712 459.907C522.765 459.907 527.953 464.97 527.953 471.254V564.653C527.953 570.937 522.765 576 516.712 576Z" fill="#F4511C"/>
<path d="M604.965 556.531L581.712 532.113L604.071 506.126C607.827 501.417 607.111 494.266 602.64 490.255C597.452 486.592 589.94 487.29 586.005 491.65L563.11 518.509V471.069C563.11 464.791 557.565 459.907 551.662 459.907C545.044 459.907 540.035 464.791 540.035 471.069V564.205C540.035 570.658 545.044 575.716 551.662 575.716C557.565 575.716 563.11 570.658 563.11 564.205V546.066L587.793 572.228C592.444 577.286 599.957 577.112 604.428 572.577C608.721 568.217 609.437 561.24 604.965 556.531V556.531Z" fill="#F4511C"/>
</svg>
