<?xml version="1.0" standalone="no"?>
<!DOCTYPE svg PUBLIC "-//W3C//DTD SVG 20010904//EN"
 "http://www.w3.org/TR/2001/REC-SVG-20010904/DTD/svg10.dtd">
<svg version="1.0" xmlns="http://www.w3.org/2000/svg"
 width="700.000000pt" height="700.000000pt" viewBox="0 0 700.000000 700.000000"
 preserveAspectRatio="xMidYMid meet">
<g transform="translate(0.000000,700.000000) scale(0.100000,-0.100000)"
fill="#000000" stroke="none">
<path d="M2755 6993 c-722 -60 -1345 -337 -1847 -822 -270 -261 -461 -525
-623 -863 -403 -842 -374 -1863 76 -2681 102 -185 280 -436 399 -562 l38 -40
-64 -425 c-35 -234 -64 -451 -64 -483 0 -131 103 -226 234 -215 44 4 109 36
452 222 l401 217 49 -22 c198 -85 489 -166 720 -200 126 -18 151 -25 164 -43
31 -45 151 -175 241 -261 330 -317 743 -531 1197 -619 445 -87 922 -45 1334
118 l88 34 315 -170 c224 -121 328 -172 358 -175 103 -12 204 55 233 153 15
53 14 62 -35 397 -28 188 -51 351 -51 362 0 11 34 61 76 110 562 671 708 1615
378 2438 -172 427 -463 791 -862 1076 l-101 72 -11 57 c-45 222 -143 493 -263
725 -147 287 -317 518 -547 747 -500 497 -1134 789 -1845 850 -111 9 -347 11
-440 3z m1120 -1228 c99 -44 150 -121 150 -225 -1 -96 -50 -175 -140 -223 -53
-29 -203 -31 -252 -4 -55 29 -103 78 -129 129 l-24 48 -115 0 c-103 0 -115 -2
-125 -19 -16 -30 -14 -583 3 -603 9 -11 38 -17 107 -22 52 -3 112 -10 132 -16
92 -26 191 -127 203 -208 11 -69 26 -87 77 -90 79 -5 78 -10 78 299 l0 270 25
24 c23 24 29 25 164 25 l139 0 36 49 c89 125 261 155 391 69 51 -34 100 -109
110 -170 17 -97 -44 -207 -142 -255 -49 -23 -70 -28 -133 -27 -110 0 -188 46
-241 140 l-31 54 -72 0 c-43 0 -77 -5 -84 -12 -9 -9 -12 -86 -12 -285 0 -335
10 -313 -146 -313 -58 0 -114 -5 -125 -10 -17 -10 -19 -22 -19 -133 0 -82 4
-127 12 -135 9 -9 74 -12 229 -12 l218 0 38 57 c90 135 264 170 398 81 53 -35
101 -111 111 -174 8 -55 -17 -139 -55 -184 -120 -145 -378 -123 -461 40 -10
21 -26 40 -35 44 -28 10 -415 7 -436 -4 -17 -10 -19 -22 -19 -133 0 -82 4
-127 12 -135 8 -8 49 -12 119 -12 92 0 110 -3 133 -21 l26 -20 0 -274 c0 -319
-4 -305 94 -305 66 0 86 11 100 57 11 34 84 103 132 124 138 62 299 9 366
-120 47 -90 35 -188 -35 -267 -52 -59 -106 -86 -188 -92 -116 -8 -179 25 -282
147 -16 19 -27 21 -154 21 -198 0 -183 -26 -183 316 0 222 -3 274 -14 283 -8
7 -37 11 -67 9 l-54 -3 -15 -60 c-22 -81 -41 -114 -91 -159 -65 -59 -119 -79
-234 -84 -55 -2 -106 -9 -112 -14 -10 -8 -13 -83 -13 -314 l0 -304 26 -10 c28
-11 156 -13 192 -4 13 4 31 23 42 44 47 92 129 148 230 157 112 10 211 -40
268 -135 23 -39 27 -59 27 -118 0 -61 -4 -77 -30 -120 -59 -96 -182 -149 -292
-126 -76 16 -138 55 -179 113 l-36 49 -179 0 c-178 0 -180 0 -204 25 l-25 24
0 354 c0 261 -3 356 -12 365 -18 18 -133 15 -152 -4 -14 -13 -16 -59 -16 -343
0 -377 -2 -389 -81 -475 -70 -76 -148 -110 -254 -110 -102 0 -180 33 -251 105
l-48 49 -91 0 c-154 0 -270 45 -365 140 -103 104 -167 245 -176 390 -8 115 -7
113 -86 160 -138 82 -257 229 -309 380 -16 47 -23 97 -27 180 -5 130 8 202 58
308 l29 63 -29 73 c-121 301 9 617 318 769 70 35 72 39 47 134 -42 160 12 332
142 453 112 105 231 150 398 150 l97 0 49 44 c73 66 129 89 229 94 70 3 95 0
142 -18 75 -28 150 -96 185 -168 l28 -57 5 -345 5 -345 75 -3 c62 -2 77 0 87
14 10 14 13 101 13 370 l0 353 26 20 c25 19 40 21 198 21 l172 0 48 55 c93
109 214 137 341 80z m2283 -2012 c279 -368 416 -804 399 -1267 -18 -484 -195
-910 -531 -1274 -123 -134 -125 -142 -87 -393 16 -107 28 -195 27 -196 0 -1
-77 40 -170 90 -220 119 -234 120 -397 49 -272 -118 -523 -172 -811 -172 -449
0 -890 156 -1241 440 -55 44 -75 65 -65 70 7 4 42 11 78 14 36 4 121 19 190
33 1033 208 1885 965 2216 1968 83 255 125 470 144 747 5 79 10 145 10 148 1
12 182 -183 238 -257z"/>
<path d="M2516 5645 c-53 -14 -99 -52 -127 -107 -24 -46 -47 -53 -120 -38 -32
7 -93 11 -137 8 -144 -8 -272 -92 -330 -216 -22 -47 -27 -71 -27 -137 0 -71 4
-89 33 -147 56 -114 162 -192 288 -213 75 -12 84 -15 100 -40 23 -35 11 -73
-29 -90 -73 -30 -253 28 -359 116 -26 22 -57 39 -71 39 -13 0 -57 -16 -97 -36
-174 -88 -287 -283 -264 -460 7 -56 24 -84 50 -84 8 0 38 18 67 39 205 153
489 192 738 101 119 -43 273 -150 304 -211 18 -35 5 -71 -32 -88 -39 -18 -50
-14 -106 37 -142 129 -272 182 -447 182 -111 0 -194 -21 -293 -72 -222 -116
-345 -364 -296 -600 26 -127 146 -301 243 -353 43 -23 55 -15 90 61 95 207
279 337 479 338 71 1 81 -1 98 -23 24 -29 24 -52 1 -81 -14 -18 -33 -24 -99
-30 -108 -11 -176 -44 -246 -120 -230 -248 -176 -678 101 -808 47 -22 70 -27
132 -26 113 1 177 30 263 117 60 61 75 71 105 71 37 0 72 -31 72 -63 0 -25
-61 -100 -115 -141 -44 -34 -63 -68 -50 -90 3 -5 25 -20 47 -31 88 -45 212 -6
254 78 18 37 19 82 19 1513 l0 1475 -25 44 c-42 75 -125 108 -214 86z"/>
<path d="M3693 5641 c-35 -22 -63 -67 -63 -103 0 -34 35 -85 71 -104 78 -40
179 20 179 106 0 90 -110 149 -187 101z"/>
<path d="M4364 5161 c-63 -38 -71 -132 -15 -183 60 -54 150 -42 191 24 24 39
25 69 5 112 -30 63 -118 86 -181 47z"/>
<path d="M2914 4685 c-19 -29 -16 -147 4 -167 9 -9 60 -15 151 -18 128 -5 140
-7 178 -32 24 -16 49 -44 62 -70 20 -42 21 -59 21 -359 0 -307 -1 -315 -23
-354 -45 -79 -110 -105 -267 -105 -58 0 -111 -4 -118 -8 -9 -6 -12 -33 -10
-98 l3 -89 267 0 c255 0 268 1 295 21 15 12 37 36 48 55 19 33 20 52 20 584
l0 550 -24 39 c-44 70 -71 76 -348 76 l-243 0 -16 -25z"/>
<path d="M2922 4358 c-17 -17 -17 -609 0 -626 8 -8 50 -12 123 -12 73 0 115 4
123 12 9 9 12 91 12 309 0 257 -2 300 -16 313 -20 20 -223 23 -242 4z"/>
<path d="M4368 4144 c-56 -30 -73 -104 -38 -161 24 -40 54 -56 106 -56 52 0
99 32 114 78 16 49 4 89 -36 125 -40 34 -99 40 -146 14z"/>
<path d="M4364 3121 c-63 -38 -71 -132 -15 -183 60 -54 150 -42 191 24 24 39
25 69 5 112 -30 63 -118 86 -181 47z"/>
<path d="M3728 2663 c-15 -3 -41 -17 -57 -32 -80 -74 -27 -201 84 -201 99 0
156 95 105 177 -27 45 -72 64 -132 56z"/>
</g>
</svg>
